<!-- Pixel art icons for LinkedIn, Behance, Instagram, GitHub -->
<svg xmlns="http://www.w3.org/2000/svg" style="display:none">
  <symbol id="icon-linkedin" viewBox="0 0 16 16">
    <rect x="0" y="0" width="2" height="2" fill="currentColor"/>
    <rect x="2" y="0" width="2" height="2" fill="currentColor"/>
    <rect x="4" y="0" width="2" height="2" fill="currentColor"/>
    <rect x="6" y="0" width="2" height="2" fill="currentColor"/>
    <rect x="8" y="0" width="2" height="2" fill="currentColor"/>
    <rect x="10" y="0" width="2" height="2" fill="currentColor"/>
    <rect x="12" y="0" width="2" height="2" fill="currentColor"/>
    <rect x="14" y="0" width="2" height="2" fill="currentColor"/>
    <rect x="0" y="2" width="2" height="2" fill="currentColor"/>
    <rect x="14" y="2" width="2" height="2" fill="currentColor"/>
    <rect x="0" y="4" width="2" height="2" fill="currentColor"/>
    <rect x="4" y="4" width="2" height="2" fill="currentColor"/>
    <rect x="8" y="4" width="2" height="2" fill="currentColor"/>
    <rect x="14" y="4" width="2" height="2" fill="currentColor"/>
    <rect x="0" y="6" width="2" height="2" fill="currentColor"/>
    <rect x="4" y="6" width="2" height="2" fill="currentColor"/>
    <rect x="6" y="6" width="2" height="2" fill="currentColor"/>
    <rect x="8" y="6" width="2" height="2" fill="currentColor"/>
    <rect x="10" y="6" width="2" height="2" fill="currentColor"/>
    <rect x="14" y="6" width="2" height="2" fill="currentColor"/>
    <rect x="0" y="8" width="2" height="2" fill="currentColor"/>
    <rect x="4" y="8" width="2" height="2" fill="currentColor"/>
    <rect x="12" y="8" width="2" height="2" fill="currentColor"/>
    <rect x="14" y="8" width="2" height="2" fill="currentColor"/>
    <rect x="0" y="10" width="2" height="2" fill="currentColor"/>
    <rect x="4" y="10" width="2" height="2" fill="currentColor"/>
    <rect x="12" y="10" width="2" height="2" fill="currentColor"/>
    <rect x="14" y="10" width="2" height="2" fill="currentColor"/>
    <rect x="0" y="12" width="2" height="2" fill="currentColor"/>
    <rect x="14" y="12" width="2" height="2" fill="currentColor"/>
    <rect x="0" y="14" width="2" height="2" fill="currentColor"/>
    <rect x="2" y="14" width="2" height="2" fill="currentColor"/>
    <rect x="4" y="14" width="2" height="2" fill="currentColor"/>
    <rect x="6" y="14" width="2" height="2" fill="currentColor"/>
    <rect x="8" y="14" width="2" height="2" fill="currentColor"/>
    <rect x="10" y="14" width="2" height="2" fill="currentColor"/>
    <rect x="12" y="14" width="2" height="2" fill="currentColor"/>
    <rect x="14" y="14" width="2" height="2" fill="currentColor"/>
  </symbol>
</svg>
